When a wealthy Rio socialite takes a poor lad away from the slums to be her boy-toy, the result, far from being a Cinderella story, is a tragedy. The story is based on a novel by Carlos Diegues and Antonio Pitanga. Director Antonio Pitanga co-wrote the novel, produced, directed, wrote the screenplay, and plays the lead in this well-received Brazilian film. This is Antônio Pitanga´s only movie as a director (although he also plays the main character). He´s known as one of the great actors of the Brazillian Cinema Novo, staring on films of Glauber Rocha, Joaquim Pedro de Andrade, Caca Diegues and others. His real name is actually Antônio Sampaio, but his role as a character named Pitanga in his first movie "Bahia de Todos os Santos" was so effective that he came to be known as Pitanga.

   General
      Complete name : D:BT UploadsAntonio Pitanga - Na Boca do Mundo [1978]Na boca do mundo.avi
      Format : AVI
      Format/Info : Audio Video Interleave
      File size : 1.47 GiB
      Duration : 1h 46mn
      Overall bit rate : 1 966 Kbps
      Writing application : VirtualDubMod 1.5.4.1 (build 2178/release)
      Writing library : VirtualDubMod build 2178/release
   Video #0
      ID : 0
      Format : MPEG-4 Visual
      Format profile : AdvancedSimple@L5
      Format settings, BVOP : Yes
      Format settings, QPel : No
      Format settings, GMC : No warppoints
      Format settings, Matrix : Custom
      Codec ID : XVID
      Codec ID/Hint : XviD
      Duration : 1h 46mn
      Bit rate : 1 703 Kbps
      Width : 576 pixels
      Height : 432 pixels
      Display aspect ratio : 4:3
      Frame rate : 23.976 fps
      Resolution : 24 bits
      Colorimetry : 4:2:0
      Scan type : Progressive
      Bits/(Pixel*Frame) : 0.285
      Stream size : 1.27 GiB (87%)
      Writing library : XviD 1.2.1 (UTC 2008-12-04)
   Audio #1
      ID : 1
      Format : AC-3
      Format/Info : Audio Coding 3
      Codec ID : 2000
      Duration : 1h 46mn
      Bit rate mode : Constant
      Bit rate : 256 Kbps
      Channel(s) : 2 channels
      Channel positions : L R
      Sampling rate : 48.0 KHz
      Stream size : 195 MiB (13%)
      Alignment : Split accross interleaves
      Interleave, duration : 96 ms (2.30 video frames)
      Interleave, preload duration : 96 ms
      Language : portuguese

IMDB: tt0261087

Portuguese audio; no subtitles

Posted at Karagarga by patinhofeio33, who should get all the credits.

Antonio Pitanga - Na Boca do Mundo [1978]